<?xml version="1.0" encoding="UTF-8"?>
<svg xmlns="http://www.w3.org/2000/svg" width="512" height="512" viewBox="0 0 512 512">
  <path d="
    M 21.0 266.0
    C 126.75 116.0  385.25 116.0  491.0 266.0
    C 385.25 416.0  126.75 416.0  21.0 266.0
    Z"
    fill="#e9eef7" stroke="#222222" stroke-width="22" stroke-linejoin="round"/>

  <circle cx="256.0" cy="266.0" r="128" fill="#3fc0ef" stroke="#222222" stroke-width="18"/>
  <circle cx="256.0" cy="276.0" r="74" fill="#2d3b74" stroke="#222222" stroke-width="18"/>

  <path d="
    M 226.0 188.0
    C 171.0 196.0, 146.0 261.0, 176.0 306.0
    C 201.0 344.0, 276.0 361.0, 301.0 321.0
    C 321.0 286.0, 296.0 236.0, 246.0 231.0
    C 221.0 228.0, 221.0 211.0, 226.0 188.0
    Z"
    fill="#3fc0ef" />

  <g stroke="#3a3a3a" stroke-width="18" stroke-linecap="round">
    <line x1="186.0" y1="61.0" x2="161.0" y2="11.0"/>
    <line x1="256.0" y1="46.0" x2="256.0" y2="-14.0"/>
    <line x1="326.0" y1="61.0" x2="351.0" y2="11.0"/>
  </g>

  <path d="M 35 266.0 C 70 231.0 95 201.0 120 171.0 C 95 246.0 95 286.0 120 361.0 C 95 331.0 70 301.0 35 266.0 Z"
        fill="#222222"/>
  <path d="M 477 266.0 C 442 231.0 417 201.0 392 171.0
           C 417 246.0 417 286.0 392 361.0
           C 417 331.0 442 301.0 477 266.0 Z"
        fill="#222222"/>
</svg>
