<?xml version="1.0" encoding="UTF-8"?>
<svg xmlns="http://www.w3.org/2000/svg" width="512" height="512" viewBox="0 0 512 512" fill="none">
  <path d="M 19 212 L 25 222 L 49 244 L 58 239 L 69 239 L 100 259 L 135 275 L 172 286 L 213 292 L 298 292 L 348 284 L 393 268 L 418 255 L 442 239 L 453 239 L 462 244 L 486 222 L 492 213 L 480 169 L 466 139 L 444 106 L 420 80 L 390 56 L 354 36 L 321 24 L 277 16 L 234 16 L 187 25 L 157 36 L 141 44 L 106 67 L 78 93 L 54 124 L 31 169 Z" fill="#FAB991"/>
  <path d="M 88 228 L 89 234 L 95 239 L 136 259 L 176 271 L 211 276 L 300 276 L 335 271 L 358 265 L 387 254 L 416 239 L 423 232 L 423 228 L 419 223 L 412 223 L 394 234 L 367 246 L 349 252 L 317 259 L 299 261 L 212 261 L 178 256 L 147 247 L 123 237 L 99 223 L 92 223 Z" fill="#F0915A"/>
  <path d="M 16 234 L 16 277 L 19 299 L 26 327 L 33 347 L 45 372 L 61 397 L 89 429 L 110 447 L 139 466 L 164 478 L 202 490 L 234 495 L 277 495 L 304 491 L 327 485 L 347 478 L 370 467 L 411 439 L 439 411 L 466 372 L 485 327 L 490 309 L 495 277 L 495 235 L 492 214 L 487 222 L 462 245 L 458 243 L 464 252 L 464 258 L 461 265 L 437 282 L 460 317 L 459 325 L 453 331 L 442 331 L 436 325 L 416 294 L 382 308 L 396 333 L 395 341 L 386 348 L 378 347 L 372 341 L 357 316 L 332 321 L 332 346 L 331 349 L 322 356 L 314 355 L 308 349 L 307 324 L 268 325 L 268 346 L 267 349 L 258 356 L 250 355 L 244 349 L 243 325 L 204 324 L 203 349 L 197 355 L 189 356 L 186 355 L 179 346 L 179 321 L 158 316 L 153 317 L 141 338 L 133 347 L 122 347 L 116 341 L 115 333 L 129 308 L 95 294 L 75 325 L 69 331 L 58 331 L 52 325 L 51 317 L 74 282 L 50 265 L 47 258 L 47 252 L 53 243 L 49 245 L 24 222 L 19 214 Z" fill="#F0915A"/>
  <path d="M 48 252 L 48 258 L 51 265 L 75 282 L 53 314 L 53 325 L 61 331 L 69 330 L 74 325 L 94 294 L 97 293 L 130 308 L 116 333 L 117 341 L 125 347 L 133 346 L 138 341 L 154 315 L 177 319 L 180 321 L 180 346 L 181 349 L 189 355 L 197 354 L 202 349 L 204 323 L 243 324 L 245 349 L 253 355 L 261 354 L 266 349 L 268 324 L 307 323 L 309 349 L 314 354 L 322 355 L 325 354 L 331 346 L 331 321 L 353 315 L 357 315 L 360 318 L 373 341 L 378 346 L 386 347 L 394 341 L 395 333 L 381 308 L 414 293 L 417 294 L 437 325 L 442 330 L 453 330 L 459 322 L 458 314 L 436 282 L 457 268 L 462 261 L 462 249 L 452 240 L 443 240 L 404 264 L 374 277 L 336 288 L 301 293 L 210 293 L 192 291 L 155 283 L 129 274 L 98 259 L 68 240 L 59 240 L 55 242 L 50 247 Z" fill="#555A6E"/>
</svg>