<?xml version="1.0" encoding="UTF-8"?>
<svg xmlns="http://www.w3.org/2000/svg" width="512" height="512" viewBox="0 0 512 512">
  <rect x="20" y="10" width="472" height="492" rx="10" ry="10"
        fill="#f5ecd9" stroke="#000" stroke-width="16"/>

  <path d="M20 20
           L40 10 L60 20 L80 10 L100 20 L120 10 L140 20 L160 10
           L180 20 L200 10 L220 20 L240 10 L260 20 L280 10 L300 20
           L320 10 L340 20"
        fill="none" stroke="#000" stroke-width="16"/>

  <text x="256.0" y="90" text-anchor="middle"
        font-size="72" font-weight="700"
        fill="#ff4d2d" font-family="Arial, Helvetica, sans-serif">
    RECEIPT
  </text>

  <g stroke="#000" stroke-width="16" stroke-linecap="round">
    <line x1="60" y1="140" x2="220" y2="140"/>
    <line x1="260" y1="140" x2="300" y2="140"/>

    <line x1="60" y1="190" x2="220" y2="190"/>
    <line x1="260" y1="190" x2="300" y2="190"/>

    <line x1="60" y1="240" x2="220" y2="240"/>
    <line x1="260" y1="240" x2="300" y2="240"/>

    <line x1="60" y1="300" x2="220" y2="300"/>
    <line x1="60" y1="350" x2="220" y2="350"/>
  </g>

  <text x="260" y="360"
        font-size="120" font-weight="700"
        fill="#6bbf4e" font-family="Arial, Helvetica, sans-serif">
    $
  </text>
</svg>
